<?xml version="1.0" encoding="utf-8"?>
<!-- Generator: Adobe Illustrator 16.0.0, SVG Export Plug-In . SVG Version: 6.00 Build 0)  -->
<!DOCTYPE svg PUBLIC "-//W3C//DTD SVG 1.1//EN" "http://www.w3.org/Graphics/SVG/1.1/DTD/svg11.dtd">
<svg version="1.1" id="Layer_1" xmlns="http://www.w3.org/2000/svg" xmlns:xlink="http://www.w3.org/1999/xlink" x="0px" y="0px"
	 width="100px" height="100px" viewBox="0 0 100 100" enable-background="new 0 0 100 100" xml:space="preserve">
<g>
	<g>
		<path fill="#355663" d="M6.615,20.676c-0.861,0.331-1.473,1.105-1.594,2.021s0.268,1.822,1.013,2.363l8.166,5.941l29-22.816
			L17.556,33.451l11.162,8.122c0.709,0.516,1.626,0.671,2.472,0.415c0.842-0.256,1.514-0.896,1.816-1.721l11.94-32.683
			c0.12-0.333,0.034-0.704-0.218-0.952c-0.249-0.245-0.62-0.325-0.953-0.196L6.615,20.676z"/>
		<path fill="#355663" d="M12.261,32.979l0.068,0.377l1.584,8.667c0.119,0.644,0.549,1.183,1.147,1.442
			c0.6,0.259,1.289,0.204,1.837-0.149c2.207-1.424,5.09-3.313,5.014-3.424L12.261,32.979z"/>
	</g>
</g>
<g>
	<g>
		<path fill="#FFFFFF" d="M56.616,20.676c-0.86,0.332-1.474,1.105-1.595,2.021c-0.121,0.914,0.269,1.822,1.014,2.363l8.165,5.94
			L93.199,8.186L67.557,33.449l11.161,8.123c0.709,0.516,1.626,0.67,2.472,0.414c0.842-0.256,1.514-0.896,1.815-1.721l11.94-32.683
			c0.119-0.332,0.033-0.703-0.219-0.951c-0.248-0.246-0.619-0.325-0.953-0.196L56.616,20.676z"/>
		<path fill="#FFFFFF" d="M62.262,32.979l0.068,0.377l1.584,8.666c0.119,0.644,0.55,1.183,1.146,1.443
			c0.601,0.258,1.289,0.203,1.838-0.15c2.207-1.424,5.09-3.313,5.013-3.424L62.262,32.979z"/>
	</g>
</g>
<g>
	<path fill="#355663" d="M39.142,60.857c-7.811-7.81-20.474-7.81-28.284,0c-7.811,7.811-7.811,20.474,0,28.285
		c7.811,7.81,20.474,7.81,28.284,0C46.953,81.331,46.953,68.668,39.142,60.857z M34.98,79.822c0.427,0.428,0.427,1.12,0,1.548
		l-3.61,3.609c-0.427,0.428-1.12,0.428-1.547,0L25,80.157l-4.823,4.822c-0.427,0.428-1.12,0.428-1.547,0l-3.61-3.609
		c-0.428-0.428-0.427-1.12,0-1.547L19.843,75l-4.823-4.823c-0.427-0.427-0.427-1.119,0-1.547l3.61-3.609
		c0.427-0.428,1.12-0.428,1.547,0L25,69.843l4.823-4.822c0.427-0.428,1.12-0.428,1.547,0l3.61,3.609c0.427,0.428,0.427,1.12,0,1.547
		L30.157,75L34.98,79.822z"/>
</g>
<g>
	<path fill="#FFFFFF" d="M89.143,60.857c-7.811-7.81-20.475-7.81-28.285,0c-7.811,7.811-7.811,20.474,0,28.285
		c7.811,7.81,20.475,7.81,28.285,0C96.953,81.331,96.953,68.668,89.143,60.857z M84.98,79.822c0.427,0.428,0.427,1.12,0,1.548
		l-3.61,3.609c-0.427,0.428-1.12,0.428-1.548,0L75,80.157l-4.822,4.822c-0.428,0.428-1.12,0.428-1.547,0l-3.61-3.609
		c-0.428-0.428-0.427-1.12,0-1.547L69.844,75l-4.823-4.823c-0.427-0.427-0.427-1.119,0-1.547l3.61-3.609
		c0.427-0.428,1.119-0.428,1.547,0L75,69.843l4.822-4.822c0.428-0.428,1.121-0.428,1.548,0l3.61,3.609
		c0.427,0.428,0.427,1.12,0,1.547L80.157,75L84.98,79.822z"/>
</g>
</svg>
