<?xml version="1.0" encoding="utf-8"?>
<!-- Generator: Adobe Illustrator 16.0.0, SVG Export Plug-In . SVG Version: 6.00 Build 0)  -->
<!DOCTYPE svg PUBLIC "-//W3C//DTD SVG 1.1//EN" "http://www.w3.org/Graphics/SVG/1.1/DTD/svg11.dtd">
<svg version="1.1" id="Layer_1" xmlns="http://www.w3.org/2000/svg" xmlns:xlink="http://www.w3.org/1999/xlink" x="0px" y="0px"
	 width="50px" height="100px" viewBox="0 0 50 100" enable-background="new 0 0 50 100" xml:space="preserve">
<g>
	<path fill="#365663" d="M25,5C13.954,5,5,13.954,5,25c0,11.045,8.954,20,20,20s20-8.954,20-20C45,13.954,36.046,5,25,5z
		 M36.561,27.553c0,0.604-0.489,1.094-1.094,1.094h-6.82v6.82c0,0.604-0.489,1.094-1.094,1.094h-5.105
		c-0.604,0-1.094-0.49-1.094-1.094v-6.82h-6.821c-0.604,0-1.094-0.49-1.094-1.094v-5.105c0-0.604,0.49-1.094,1.094-1.094h6.821
		v-6.82c0-0.604,0.49-1.094,1.094-1.094h5.105c0.604,0,1.094,0.49,1.094,1.094v6.82h6.82c0.604,0,1.094,0.49,1.094,1.094V27.553
		L36.561,27.553z"/>
</g>
<g>
	<g>
		<path fill="#365663" d="M5,58.75v32.5h40v-32.5H5z M42.5,88.75h-35v-25h35V88.75z"/>
		<rect x="27.5" y="68.75" fill="#365663" width="12.5" height="2.5"/>
		<rect x="27.5" y="73.75" fill="#365663" width="12.5" height="2.5"/>
		<rect x="27.5" y="78.75" fill="#365663" width="7.5" height="2.5"/>
		<rect x="10" y="68.75" fill="#365663" width="12.5" height="12.5"/>
	</g>
</g>
</svg>
