<?xml version="1.0" encoding="utf-8"?>
<!-- Generator: Adobe Illustrator 16.0.0, SVG Export Plug-In . SVG Version: 6.00 Build 0)  -->
<!DOCTYPE svg PUBLIC "-//W3C//DTD SVG 1.1//EN" "http://www.w3.org/Graphics/SVG/1.1/DTD/svg11.dtd">
<svg version="1.1" id="Layer_1" xmlns="http://www.w3.org/2000/svg" xmlns:xlink="http://www.w3.org/1999/xlink" x="0px" y="0px"
	 width="100px" height="250px" viewBox="0 0 100 250" enable-background="new 0 0 100 250" xml:space="preserve">
<g>
	<g>
		<path fill="#355663" d="M5,108.75v32.5h40v-32.5H5z M42.5,138.75h-35v-25h35V138.75z"/>
		<rect x="27.5" y="118.75" fill="#355663" width="12.5" height="2.5"/>
		<rect x="27.5" y="123.75" fill="#355663" width="12.5" height="2.5"/>
		<rect x="27.5" y="128.75" fill="#355663" width="7.5" height="2.5"/>
		<rect x="10" y="118.75" fill="#355663" width="12.5" height="12.5"/>
	</g>
</g>
<g>
	<g>
		<path fill="#FFFFFF" d="M55,108.75v32.5h40v-32.5H55z M92.5,138.75h-35v-25h35V138.75z"/>
		<rect x="77.5" y="118.75" fill="#FFFFFF" width="12.5" height="2.5"/>
		<rect x="77.5" y="123.75" fill="#FFFFFF" width="12.5" height="2.5"/>
		<rect x="77.5" y="128.75" fill="#FFFFFF" width="7.5" height="2.5"/>
		<rect x="60" y="118.75" fill="#FFFFFF" width="12.5" height="12.5"/>
	</g>
</g>
<g id="Settings">
	<g>
		<path fill="#355663" d="M44.875,172.779c-0.063-0.563-0.719-0.984-1.286-0.984c-1.833,0-3.459-1.076-4.141-2.74
			c-0.697-1.705-0.248-3.693,1.119-4.945c0.43-0.395,0.482-1.053,0.122-1.51c-0.938-1.188-2.004-2.267-3.169-3.199
			c-0.456-0.363-1.125-0.313-1.52,0.123c-1.192,1.319-3.333,1.813-4.988,1.121c-1.722-0.726-2.808-2.471-2.702-4.344
			c0.035-0.588-0.395-1.1-0.981-1.168c-1.494-0.173-3.001-0.178-4.5-0.012c-0.58,0.063-1.01,0.563-0.99,1.145
			c0.065,1.854-1.034,3.568-2.739,4.27c-1.635,0.668-3.761,0.182-4.951-1.127c-0.393-0.434-1.051-0.483-1.509-0.127
			c-1.199,0.938-2.289,2.018-3.235,3.197c-0.369,0.459-0.315,1.125,0.119,1.521c1.392,1.262,1.842,3.27,1.119,4.991
			c-0.69,1.644-2.397,2.7-4.352,2.7c-0.634-0.021-1.086,0.406-1.155,0.981c-0.176,1.503-0.178,3.034-0.008,4.55
			c0.063,0.563,0.738,0.982,1.311,0.982c1.742-0.044,3.414,1.034,4.115,2.74c0.699,1.705,0.25,3.691-1.118,4.945
			c-0.428,0.395-0.482,1.051-0.122,1.508c0.929,1.184,1.996,2.261,3.164,3.201c0.458,0.366,1.125,0.314,1.522-0.121
			c1.196-1.323,3.338-1.813,4.986-1.121c1.726,0.723,2.812,2.467,2.706,4.341c-0.035,0.589,0.397,1.102,0.981,1.169
			c0.764,0.089,1.533,0.134,2.304,0.134c0.731,0,1.463-0.04,2.195-0.122c0.58-0.063,1.01-0.563,0.99-1.146
			c-0.067-1.854,1.034-3.564,2.736-4.264c1.646-0.674,3.764-0.182,4.954,1.127c0.396,0.43,1.049,0.48,1.509,0.125
			c1.197-0.938,2.285-2.015,3.236-3.199c0.369-0.457,0.317-1.125-0.12-1.52c-1.392-1.261-1.844-3.268-1.121-4.99
			c0.68-1.621,2.324-2.711,4.092-2.711l0.247,0.008c0.573,0.045,1.101-0.396,1.171-0.979
			C45.042,175.824,45.043,174.294,44.875,172.779z M25.032,181.714c-3.679,0-6.671-2.991-6.671-6.671s2.993-6.672,6.671-6.672
			c3.678,0,6.671,2.992,6.671,6.672S28.709,181.714,25.032,181.714z"/>
	</g>
</g>
<g id="Settings_1_">
	<g>
		<path fill="#FFFFFF" d="M94.875,172.779c-0.063-0.563-0.719-0.984-1.286-0.984c-1.833,0-3.459-1.076-4.141-2.74
			c-0.696-1.705-0.247-3.693,1.118-4.945c0.43-0.395,0.479-1.053,0.121-1.51c-0.938-1.188-2.004-2.268-3.168-3.199
			c-0.457-0.363-1.125-0.313-1.521,0.123c-1.191,1.318-3.333,1.813-4.988,1.119c-1.722-0.724-2.808-2.469-2.701-4.342
			c0.034-0.588-0.396-1.1-0.979-1.168c-1.494-0.173-3.002-0.178-4.5-0.012c-0.58,0.063-1.012,0.563-0.99,1.145
			c0.063,1.854-1.031,3.567-2.736,4.269c-1.638,0.668-3.764,0.182-4.951-1.126c-0.396-0.434-1.051-0.483-1.51-0.127
			c-1.199,0.938-2.289,2.017-3.234,3.197c-0.369,0.459-0.315,1.125,0.119,1.521c1.392,1.262,1.842,3.27,1.117,4.991
			c-0.69,1.644-2.396,2.7-4.354,2.7c-0.637-0.021-1.086,0.406-1.154,0.981c-0.177,1.503-0.179,3.034-0.01,4.55
			c0.063,0.563,0.737,0.982,1.313,0.982c1.74-0.044,3.414,1.034,4.112,2.74c0.7,1.705,0.25,3.691-1.116,4.945
			c-0.429,0.395-0.48,1.051-0.121,1.508c0.93,1.184,1.996,2.262,3.164,3.201c0.459,0.366,1.125,0.314,1.521-0.121
			c1.193-1.322,3.338-1.813,4.984-1.121c1.728,0.724,2.813,2.467,2.705,4.341c-0.035,0.589,0.397,1.102,0.981,1.169
			c0.765,0.089,1.533,0.134,2.304,0.134c0.731,0,1.465-0.04,2.196-0.122c0.58-0.063,1.011-0.563,0.99-1.146
			c-0.067-1.854,1.032-3.563,2.735-4.264c1.646-0.674,3.765-0.181,4.953,1.127c0.396,0.43,1.049,0.48,1.51,0.125
			c1.197-0.938,2.285-2.015,3.236-3.199c0.366-0.457,0.314-1.125-0.119-1.52c-1.395-1.261-1.848-3.268-1.121-4.99
			c0.68-1.621,2.32-2.711,4.092-2.711l0.246,0.008c0.574,0.045,1.103-0.396,1.172-0.979
			C95.043,175.824,95.045,174.294,94.875,172.779z M75.031,181.714c-3.68,0-6.672-2.991-6.672-6.671s2.992-6.672,6.672-6.672
			s6.672,2.992,6.672,6.672S78.711,181.714,75.031,181.714z"/>
	</g>
</g>
<g>
	<g id="Info">
		<g>
			<path fill="#355663" d="M25,215c-1.38,0-2.5,1.12-2.5,2.5s1.12,2.5,2.5,2.5s2.5-1.119,2.5-2.5S26.38,215,25,215z M25,222.5
				c-1.38,0-2.5,1.119-2.5,2.5v7.5c0,1.38,1.12,2.5,2.5,2.5s2.5-1.12,2.5-2.5V225C27.5,223.62,26.38,222.5,25,222.5z M25,205
				c-11.027,0-20,8.973-20,20s8.973,20,20,20s20-8.973,20-20S36.026,205,25,205z M25,241.25c-8.961,0-16.25-7.29-16.25-16.25
				s7.289-16.25,16.25-16.25c8.96,0,16.25,7.29,16.25,16.25S33.959,241.25,25,241.25z"/>
		</g>
	</g>
</g>
<g>
	<g id="Info_1_">
		<g>
			<path fill="#FFFFFF" d="M75,215c-1.38,0-2.5,1.12-2.5,2.5s1.12,2.5,2.5,2.5s2.5-1.119,2.5-2.5S76.381,215,75,215z M75,222.5
				c-1.38,0-2.5,1.119-2.5,2.5v7.5c0,1.38,1.12,2.5,2.5,2.5s2.5-1.12,2.5-2.5V225C77.5,223.62,76.381,222.5,75,222.5z M75,205
				c-11.027,0-20,8.973-20,20s8.973,20,20,20s20-8.973,20-20S86.027,205,75,205z M75,241.25c-8.961,0-16.25-7.29-16.25-16.25
				s7.289-16.25,16.25-16.25c8.96,0,16.25,7.29,16.25,16.25S83.96,241.25,75,241.25z"/>
		</g>
	</g>
</g>
<g>
	<g>
		<path fill="#355663" d="M41.059,10.677c0,0-0.094-0.905-0.685-1.813c-0.857-1.333-3.846-2.712-5.877-3.477
			c-0.936-0.351-2.498-0.478-3.485-0.321c-2.831,0.447-13.524,2.768-13.524,2.768c-3.156,0.615-4.665,1.192-5.72,1.978
			c-2.01,1.648-2.614,4.001-2.777,5.613c-0.102,0.994-0.013,2.616,0,3.616L9.056,24.4c0.013,1,0.767,2.128,1.686,2.52
			c2.117,0.902,5.783,2.459,8.193,3.453c0.923,0.381,1.675-0.132,1.673-1.13l-0.031-10.72c0,0,0.139-1.85-1.158-3.66
			c-1.709-2.386-5.083-4.297-8.427-1.042c-0.743,0.667-0.812,0.542-0.521-0.321c0.839-1.95,3.447-4.383,7.498-2.74
			c3.579,1.783,4.314,4.133,4.647,6.053c0.204,0.979,0.271,2.609,0.271,3.609v8.434c0,1,0.498,1.296,1.299,0.696
			c0.155-0.116,0.266-0.243,0.465-0.382c0.818-0.575,1.474-0.188,1.472,0.811L26.078,43.2c-0.003,0.477,0.187,0.935,0.523,1.272
			C26.938,44.811,27.395,45,27.872,45h1.372c0.989,0,1.793-0.803,1.793-1.794V27.512c0-1,0.769-2.244,1.602-2.795
			c2.978-1.972,5.488-3.891,6.997-5.053c0.793-0.609,1.423-1.824,1.423-2.823C41.058,16.842,41.059,10.677,41.059,10.677z"/>
	</g>
</g>
<g>
	<g>
		<path fill="#355663" d="M20.175,63.298h9.648c1.529,0,2.77-1.24,2.77-2.77c0-1.53-1.24-2.77-2.77-2.77h-0.49
			C29.115,56.2,27.777,55,26.159,55H23.84c-1.619,0-2.956,1.2-3.175,2.758h-0.49c-1.529,0-2.77,1.24-2.77,2.77
			C17.406,62.058,18.646,63.298,20.175,63.298z"/>
		<path fill="#355663" d="M33.503,56.893h-1.712c1.038,0.564,1.808,1.56,2.069,2.745c2.09,0.182,3.735,1.94,3.735,4.076v24.465
			c0,2.257-1.837,4.093-4.093,4.093H16.496c-2.256,0-4.092-1.836-4.092-4.093V63.714c0-2.136,1.646-3.894,3.734-4.076
			c0.262-1.185,1.031-2.181,2.069-2.745h-1.712c-3.761,0-6.82,3.06-6.82,6.821v24.465c0,3.762,3.06,6.821,6.82,6.821h17.008
			c3.761,0,6.82-3.06,6.82-6.821V63.714C40.324,59.953,37.265,56.893,33.503,56.893z"/>
		<path fill="#355663" d="M33.458,68.034H25c-0.754,0-1.364,0.61-1.364,1.364c0,0.753,0.61,1.364,1.364,1.364h8.458
			c0.754,0,1.364-0.611,1.364-1.364S34.211,68.034,33.458,68.034z"/>
		<path fill="#355663" d="M33.458,75.31H25c-0.754,0-1.364,0.611-1.364,1.364c0,0.754,0.61,1.364,1.364,1.364h8.458
			c0.754,0,1.364-0.61,1.364-1.364C34.821,75.921,34.211,75.31,33.458,75.31z"/>
		<path fill="#355663" d="M33.458,82.586H25c-0.754,0-1.364,0.61-1.364,1.364c0,0.753,0.61,1.364,1.364,1.364h8.458
			c0.754,0,1.364-0.611,1.364-1.364C34.821,83.196,34.211,82.586,33.458,82.586z"/>
		<path fill="#355663" d="M22.954,69.398c0-2.261-1.833-4.093-4.093-4.093c-2.261,0-4.093,1.832-4.093,4.093
			c0,1.584,0.901,2.958,2.218,3.638c-1.316,0.68-2.218,2.053-2.218,3.638s0.901,2.958,2.218,3.638
			c-1.316,0.681-2.218,2.054-2.218,3.639c0,2.26,1.832,4.092,4.093,4.092c2.26,0,4.093-1.832,4.093-4.092
			c0-1.585-0.901-2.958-2.219-3.639c1.317-0.68,2.219-2.053,2.219-3.638s-0.901-2.958-2.219-3.638
			C22.053,72.356,22.954,70.982,22.954,69.398z M21.382,82.16c0.301,0.301,0.301,0.788,0,1.089l-2.49,2.491
			c-0.15,0.15-0.348,0.226-0.545,0.226c-0.197,0-0.395-0.075-0.545-0.226l-1.464-1.464c-0.301-0.301-0.301-0.789,0-1.09
			c0.301-0.301,0.789-0.301,1.09,0l0.919,0.919l1.946-1.945C20.595,81.858,21.082,81.858,21.382,82.16z M21.382,74.884
			c0.301,0.301,0.301,0.788,0,1.09l-2.49,2.49c-0.15,0.15-0.348,0.226-0.545,0.226c-0.197,0-0.395-0.075-0.545-0.226l-1.464-1.463
			c-0.301-0.301-0.301-0.789,0-1.09c0.301-0.301,0.789-0.301,1.09,0l0.919,0.919l1.946-1.946
			C20.595,74.583,21.082,74.583,21.382,74.884z M21.382,68.697l-2.49,2.491c-0.15,0.15-0.348,0.226-0.545,0.226
			c-0.197,0-0.395-0.075-0.545-0.226l-1.464-1.464c-0.301-0.301-0.301-0.788,0-1.09c0.301-0.301,0.789-0.301,1.09,0l0.919,0.92
			l1.946-1.946c0.301-0.301,0.788-0.301,1.089,0C21.684,67.909,21.684,68.396,21.382,68.697z"/>
	</g>
</g>
<g>
	<g>
		<path fill="#FFFFFF" d="M91.058,10.678c0,0-0.094-0.906-0.685-1.813c-0.856-1.333-3.847-2.712-5.878-3.478
			c-0.936-0.35-2.497-0.477-3.484-0.32c-2.83,0.446-13.523,2.768-13.523,2.768c-3.156,0.615-4.665,1.191-5.721,1.979
			c-2.011,1.647-2.615,4-2.777,5.613c-0.102,0.994-0.014,2.615,0.001,3.615l0.065,5.359c0.012,0.999,0.767,2.127,1.686,2.52
			c2.117,0.902,5.783,2.459,8.193,3.453c0.924,0.381,1.676-0.133,1.672-1.131l-0.03-10.721c0,0,0.139-1.85-1.158-3.659
			c-1.709-2.386-5.083-4.298-8.427-1.042c-0.743,0.668-0.813,0.543-0.521-0.32c0.84-1.95,3.447-4.383,7.498-2.74
			c3.579,1.783,4.314,4.133,4.647,6.053c0.204,0.979,0.271,2.609,0.271,3.609v8.434c0,1,0.498,1.296,1.299,0.695
			c0.155-0.115,0.267-0.242,0.465-0.382c0.818-0.575,1.475-0.188,1.473,0.812l-0.045,13.219c-0.004,0.477,0.188,0.935,0.523,1.272
			C76.937,44.811,77.394,45,77.87,45h1.372c0.989,0,1.794-0.803,1.794-1.794V27.512c0-0.999,0.77-2.243,1.602-2.795
			c2.979-1.971,5.488-3.891,6.996-5.053c0.793-0.608,1.424-1.823,1.424-2.822V10.678L91.058,10.678z"/>
	</g>
</g>
<g>
	<g>
		<path fill="#FFFFFF" d="M70.176,63.298h9.648c1.529,0,2.77-1.24,2.77-2.771c0-1.529-1.24-2.77-2.77-2.77h-0.49
			C79.115,56.199,77.777,55,76.159,55h-2.318c-1.618,0-2.956,1.199-3.175,2.758h-0.49c-1.529,0-2.77,1.24-2.77,2.77
			C67.406,62.058,68.646,63.298,70.176,63.298z"/>
		<path fill="#FFFFFF" d="M83.504,56.893h-1.712c1.038,0.564,1.808,1.561,2.069,2.746c2.09,0.182,3.734,1.939,3.734,4.075v24.465
			c0,2.257-1.837,4.093-4.093,4.093H66.496c-2.256,0-4.092-1.836-4.092-4.093V63.714c0-2.136,1.646-3.894,3.734-4.075
			c0.262-1.186,1.03-2.182,2.068-2.746h-1.712c-3.761,0-6.82,3.061-6.82,6.821v24.465c0,3.762,3.06,6.821,6.82,6.821h17.008
			c3.761,0,6.82-3.06,6.82-6.821V63.714C90.324,59.953,87.266,56.893,83.504,56.893z"/>
		<path fill="#FFFFFF" d="M83.458,68.034H75c-0.754,0-1.363,0.61-1.363,1.364c0,0.753,0.609,1.364,1.363,1.364h8.458
			c0.754,0,1.364-0.611,1.364-1.364S84.212,68.034,83.458,68.034z"/>
		<path fill="#FFFFFF" d="M83.458,75.31H75c-0.754,0-1.363,0.611-1.363,1.364c0,0.754,0.609,1.364,1.363,1.364h8.458
			c0.754,0,1.364-0.61,1.364-1.364C84.822,75.921,84.212,75.31,83.458,75.31z"/>
		<path fill="#FFFFFF" d="M83.458,82.586H75c-0.754,0-1.363,0.61-1.363,1.364c0,0.753,0.609,1.364,1.363,1.364h8.458
			c0.754,0,1.364-0.611,1.364-1.364C84.822,83.196,84.212,82.586,83.458,82.586z"/>
		<path fill="#FFFFFF" d="M72.954,69.398c0-2.261-1.833-4.093-4.093-4.093c-2.262,0-4.094,1.832-4.094,4.093
			c0,1.584,0.901,2.958,2.219,3.638c-1.316,0.68-2.219,2.053-2.219,3.638s0.901,2.958,2.219,3.638
			c-1.316,0.681-2.219,2.054-2.219,3.639c0,2.26,1.832,4.092,4.094,4.092c2.26,0,4.093-1.832,4.093-4.092
			c0-1.585-0.901-2.958-2.22-3.639c1.317-0.68,2.22-2.053,2.22-3.638s-0.901-2.958-2.22-3.638
			C72.053,72.356,72.954,70.982,72.954,69.398z M71.383,82.16c0.301,0.301,0.301,0.788,0,1.089l-2.49,2.491
			c-0.149,0.15-0.348,0.226-0.545,0.226s-0.395-0.075-0.545-0.226l-1.464-1.464c-0.301-0.301-0.301-0.789,0-1.09
			c0.302-0.301,0.789-0.301,1.091,0l0.918,0.919l1.946-1.945C70.596,81.858,71.082,81.858,71.383,82.16z M71.383,74.884
			c0.301,0.301,0.301,0.788,0,1.09l-2.49,2.49c-0.149,0.15-0.348,0.226-0.545,0.226s-0.395-0.075-0.545-0.226l-1.464-1.463
			c-0.301-0.301-0.301-0.789,0-1.09c0.302-0.301,0.789-0.301,1.091,0l0.918,0.919l1.946-1.946
			C70.596,74.583,71.082,74.583,71.383,74.884z M71.383,68.697l-2.49,2.491c-0.149,0.15-0.348,0.226-0.545,0.226
			s-0.395-0.075-0.545-0.226l-1.464-1.464c-0.301-0.301-0.301-0.788,0-1.09c0.302-0.301,0.789-0.301,1.091,0l0.918,0.92l1.946-1.946
			c0.302-0.302,0.788-0.302,1.089,0C71.684,67.909,71.684,68.396,71.383,68.697z"/>
	</g>
</g>
</svg>
