<?xml version="1.0" encoding="utf-8"?>
<!-- Generator: Adobe Illustrator 16.0.0, SVG Export Plug-In . SVG Version: 6.00 Build 0)  -->
<!DOCTYPE svg PUBLIC "-//W3C//DTD SVG 1.1//EN" "http://www.w3.org/Graphics/SVG/1.1/DTD/svg11.dtd">
<svg version="1.1" id="Layer_1" xmlns="http://www.w3.org/2000/svg" xmlns:xlink="http://www.w3.org/1999/xlink" x="0px" y="0px"
	 width="150px" height="150px" viewBox="0 0 150 150" enable-background="new 0 0 150 150" xml:space="preserve">
<g>
	<g>
		<g>
			<path fill="#345663" d="M143.717,42.352H62.69c-2.563,0-5.066,2.077-5.593,4.639L45.58,103.009
				c-0.526,2.563,1.125,4.64,3.686,4.64h81.028c2.563,0,5.065-2.077,5.593-4.64l11.515-56.018
				C147.93,44.428,146.279,42.352,143.717,42.352z M134.023,61.099L98.064,78.441c-1.551,0.748-3.317,0.748-4.562,0L64.675,61.099
				c-2.09-1.257-2.376-4.191-0.635-6.54c1.166-1.574,3-2.553,4.788-2.553c0.79,0,1.537,0.198,2.16,0.573l26.798,16.122
				l33.429-16.122c0.775-0.375,1.604-0.572,2.395-0.572c1.787,0,3.22,0.978,3.737,2.551
				C138.122,56.908,136.631,59.842,134.023,61.099z"/>
			<path fill="#345663" d="M15.21,54.584h34.91c1.849,0,3.346-1.498,3.346-3.345c0-1.848-1.497-3.345-3.346-3.345H15.21
				c-1.847,0-3.345,1.497-3.345,3.345C11.865,53.086,13.363,54.584,15.21,54.584z"/>
			<path fill="#345663" d="M40.756,78.331H5.846c-1.848,0-3.346,1.498-3.346,3.345c0,1.848,1.497,3.345,3.346,3.345h34.91
				c1.847,0,3.345-1.497,3.345-3.345C44.101,79.829,42.603,78.331,40.756,78.331z"/>
			<path fill="#345663" d="M48.782,66.263c0-1.847-1.497-3.344-3.343-3.344H24.574c-1.847,0-3.343,1.497-3.343,3.344
				c0,1.847,1.497,3.344,3.343,3.344h20.865C47.286,69.607,48.782,68.109,48.782,66.263z"/>
			<path fill="#345663" d="M36.073,93.354H24.925c-1.848,0-3.346,1.497-3.346,3.346c0,1.846,1.498,3.345,3.346,3.345h11.148
				c1.849,0,3.346-1.498,3.346-3.345C39.418,94.852,37.921,93.354,36.073,93.354z"/>
		</g>
	</g>
</g>
</svg>
